<svg xmlns="http://www.w3.org/2000/svg" viewBox="0 0 512 512" role="img" aria-label="skull lock">
  <defs>
    <filter id="glow" x="-40%" y="-40%" width="180%" height="180%">
      <feGaussianBlur stdDeviation="4" result="blur"/>
      <feMerge>
        <feMergeNode in="blur"/>
        <feMergeNode in="SourceGraphic"/>
      </feMerge>
    </filter>
  </defs>
  <rect width="512" height="512" fill="#000000"/>
  <g filter="url(#glow)">
    <path d="M256 46C149 46 82 116 82 213c0 62 29 106 77 128v67c0 30 24 54 54 54h86c30 0 54-24 54-54v-67c48-22 77-66 77-128C430 116 363 46 256 46Z" fill="none" stroke="#00ff66" stroke-width="18" stroke-linejoin="round"/>
    <ellipse cx="206" cy="238" rx="45" ry="53" fill="#00ff66" fill-opacity="0.9"/>
    <ellipse cx="306" cy="238" rx="45" ry="53" fill="#00ff66" fill-opacity="0.9"/>
    <path d="M256 289l-25 50h50l-25-50Z" fill="none" stroke="#00ff66" stroke-width="16" stroke-linejoin="round"/>
    <path d="M183 371h146M202 407h108M226 371v72M256 371v72M286 371v72" fill="none" stroke="#00ff66" stroke-width="14" stroke-linecap="round"/>
    <path d="M87 89l338 338M425 89L87 427" stroke="#00ff66" stroke-width="8" stroke-opacity="0.32"/>
  </g>
</svg>